<svg width="71" height="80" viewBox="0 0 71 80" fill="none" xmlns="http://www.w3.org/2000/svg">
<path d="M70.278 68.2496C70.278 67.3421 70.278 67.785 70.278 66.8988C70.278 64.9066 69.179 63.7969 67.1921 63.7969C61.887 63.7969 48.6777 63.7969 48.6777 63.7969V66.9037C48.6794 67.7865 49.1202 68.2283 50.0001 68.2283H57.4043C57.9407 68.2283 58.3758 68.5848 58.3758 69.2047C58.3758 69.8246 57.9407 70.1811 57.4043 70.1811H52.2043V73.3649H57.4043C57.9407 73.3649 58.3758 73.7219 58.3758 74.3417C58.3758 74.9616 57.9407 75.3181 57.4043 75.3181H48.6777V78.4222C48.6785 79.3067 49.1193 79.7491 50.0001 79.7491V79.7496H66.7513C68.9568 79.7496 70.278 78.4209 70.278 76.6476C70.278 75.7614 70.278 75.8134 70.278 74.9059C70.278 72.9252 68.869 71.9482 67.6253 71.7625V71.3832C68.869 71.1994 70.278 70.2302 70.278 68.2496ZM22.0417 66.9014V63.7969C22.0417 63.7969 4.22793 63.7969 3.52704 63.7969C1.54564 63.7969 0.441406 64.9015 0.441406 66.8988C0.441406 68.6712 0.441406 79.7489 0.441406 79.7489H11.0211C11.9028 79.7489 12.3436 79.306 12.3436 78.4194V68.2283L20.7237 68.2279C21.6013 68.2268 22.0408 67.7841 22.0417 66.9014ZM42.6103 67.2396C41.6894 64.5386 40.5561 63.7969 37.0295 63.7969L26.0089 63.7973L21.1601 79.7494H25.5857L26.331 77.0405H33.4527L33.8791 78.6011L33.8793 78.6019C34.1612 79.4524 34.6183 79.7489 35.4436 79.7496H46.8774L42.6116 67.2391L42.6103 67.2396ZM27.2076 73.8563L28.7568 68.2283H30.0943V68.2309C30.7617 68.2304 31.106 68.4519 31.2863 69.122L31.2895 69.1224L32.5829 73.8563H27.2076Z" fill="#292B2E"/>
<path d="M70.4749 58.2615L68.4232 52.6586L66.7328 52.2844L67.0559 51.3266C67.1594 51.02 67.0868 50.7622 66.8397 50.561C66.7736 50.5074 66.7034 50.4538 66.6251 50.395C66.2933 50.1447 65.7452 49.8549 64.872 48.8277C63.6613 47.4039 62.5444 45.7386 61.9349 43.7881C61.295 41.7419 61.1716 39.4877 61.1577 39.2635V38.9491L61.1498 38.8814L61.1405 38.844C61.0451 38.4792 60.8057 38.346 60.475 38.2586C59.7673 38.0727 59.1312 37.6925 58.2906 37.0165C57.5284 36.4039 56.5431 34.7638 56.2512 33.4864C56.0411 32.5666 55.9601 31.6619 55.9715 31.0886L56.1831 31.0477C56.4007 31.0041 56.8793 30.9733 57.3292 30.9733C57.6746 30.9733 57.9216 30.8616 58.0644 30.6404C58.2786 30.3083 58.1188 29.9465 58.0327 29.7525C57.8805 29.4085 57.3881 28.3593 56.374 27.648C55.3339 26.9188 53.2733 25.6299 51.8629 24.8735C50.2632 24.0151 49.6663 23.7445 49.4529 23.6599C49.0416 23.4957 48.6386 23.4676 48.2651 23.4612C48.197 23.4597 48.1193 23.4593 48.0326 23.4593C47.4339 23.4593 46.3887 23.4844 45.4671 23.5063C44.813 23.5225 44.1686 23.5378 43.6662 23.5454C42.4276 23.5644 40.614 23.5782 38.8628 23.5905C37.9364 23.5965 37.074 23.6031 36.415 23.6097C36.2608 23.6112 36.0832 23.6118 35.8862 23.6118C33.9213 23.6118 29.9244 23.5446 27.4002 23.4797C27.6791 22.967 28.0222 22.3416 28.2907 21.8702C28.6619 21.2174 29.2587 19.9749 29.7854 18.8785L29.8008 18.8455C29.9921 18.4467 30.171 18.0742 30.3202 17.77C30.8528 16.6843 31.2655 15.7073 31.5116 15.124L31.5476 15.0389C31.828 14.3777 31.9026 13.626 31.9026 13.2978C31.9026 13.1897 31.8946 12.9765 31.8889 12.8698C31.9134 12.8749 32.1481 12.927 32.236 12.9436C32.521 12.9974 32.9237 13.031 33.3861 13.0216C33.7291 13.0155 34.0339 12.9891 34.2912 12.9244C34.9479 12.7591 35.595 12.4039 36.0936 11.9044C36.7147 11.2822 36.8099 10.9635 36.8144 10.957C36.8144 10.957 36.9123 10.7261 36.7464 10.6245C36.4061 10.4154 35.8307 10.0756 35.4902 9.94993C34.8649 9.7187 34.0603 9.50066 33.0264 9.48768C32.043 9.47534 31.162 9.7572 31.162 9.7572C31.162 9.7572 31.1097 9.1452 31.0756 9.13648L34.86 9.24645C36.2462 9.24645 37.8576 9.10861 40.2001 8.81675C43.004 8.46768 44.7981 7.9146 46.6623 7.23304C48.4249 6.58913 50.167 5.69378 51.202 5.00519C52.1828 4.35171 52.7407 3.96073 53.6585 3.18025C54.7001 2.29405 55.5275 1.43529 55.8214 1.05941L56.4356 0.25H50.0618L49.9153 0.464637C49.8402 0.563766 49.1677 1.4489 48.6613 1.99241C48.124 2.5708 47.5016 3.21109 46.3294 4.11261C45.389 4.83714 44.49 5.30683 43.5824 5.54934C43.2533 5.6374 42.902 5.68208 42.5383 5.68208C42.2454 5.68208 41.9516 5.65336 41.6655 5.59699C41.0832 5.48169 40.6375 5.14602 40.5147 5.04583C40.2623 4.8397 40.016 4.73972 39.762 4.73972C39.5294 4.73972 39.3153 4.82438 39.1255 4.99222L39.0577 5.05199C38.8848 5.206 38.6887 5.38022 38.4007 5.55317C37.7449 5.94649 37.1254 6.23643 36.5594 6.41448C36.0733 6.56785 35.5398 6.64869 35.0168 6.64869C34.6135 6.64869 34.2281 6.59998 33.9035 6.50723C33.3912 6.36173 33.0202 5.9148 32.9318 5.81631C32.7496 5.61379 32.5365 5.47042 32.2624 5.47042C32.0813 5.47042 31.8986 5.52956 31.7486 5.63741C31.6377 5.71739 31.2987 5.88714 30.7914 6.08582C30.2804 6.28727 29.5981 6.39768 28.8701 6.39768C28.5601 6.39768 28.2459 6.37747 27.9356 6.33747C26.6181 6.1673 25.3871 5.52722 25.0411 5.33534C24.4325 4.99775 23.6241 4.44169 23.4618 4.32938L23.186 4.13665L21.3563 5.44383L21.9525 5.95372C22.166 6.13284 22.4703 6.33684 22.6557 6.4549C22.9225 6.62486 23.3957 6.90523 23.9373 7.1973C24.3021 7.39407 24.5455 7.51362 24.89 7.68933L24.9173 7.70337C25.0972 7.79526 25.3067 7.9297 25.4419 8.04734C25.6643 8.24113 25.8689 8.51703 25.8689 8.70039C25.7077 8.69657 25.3388 8.66593 25.1843 8.66593C25.0963 8.66593 25.0131 8.66721 24.9397 8.66955C24.3933 8.68401 23.9953 8.78697 23.6099 9.0131C23.3587 9.1603 22.9475 9.39111 22.7141 9.52172L22.6278 9.57043C22.4942 9.64573 22.0251 9.82421 21.6585 9.89079C21.3343 9.95014 20.7926 10.0097 20.2113 10.0733L19.937 10.1035C19.2983 10.1746 17.7357 10.3947 17.0266 10.5634C16.3005 10.7355 15.9647 11.199 16.0284 11.9395C16.0493 12.1831 16.1194 12.4675 16.2021 12.8027C16.2258 12.8993 16.2508 12.9997 16.2758 13.1042C16.3589 13.4539 16.4182 13.6324 16.4705 13.7913C16.4859 13.8381 16.5014 13.8844 16.5168 13.9344C16.641 14.3339 16.8749 14.5181 17.3237 14.5705C18.1884 14.6685 19.0152 14.7755 19.6522 14.8715C20.4733 14.9953 20.9744 15.0748 21.5119 15.208C21.135 15.5186 20.5712 15.9868 19.8661 16.5358C18.9128 17.278 16.527 19.1489 15.46 20.0593C13.2443 21.9498 11.9968 23.1094 10.5189 26.1077C10.3866 26.3763 10.1709 26.8107 10.1709 26.8107C9.82664 27.5046 9.68401 27.7916 9.44171 28.3715C9.03053 29.3534 9.54329 29.7718 9.78517 30.0173L9.95679 30.186C10.2095 30.4474 10.7662 30.8793 11.2957 31.3119C11.5549 31.5234 11.9682 31.8648 12.3443 32.1756C11.3903 32.297 10.1335 32.5172 9.21294 32.631C7.72187 32.8157 6.29788 33.026 5.71486 33.1305C5.0089 33.2566 4.83262 33.5449 4.64428 33.9695L4.61381 34.0365C4.48345 34.3264 4.2805 34.9131 3.9927 35.8291C3.80795 36.4183 3.9908 36.7393 4.19374 36.9757L4.21723 37.0029C4.2951 37.1012 5.03387 38.0016 5.99865 39.0867C6.95305 40.1605 7.65648 40.91 8.59353 41.8521C9.25569 42.5171 10.1786 43.4043 10.7351 43.9355C10.5335 44.2389 10.23 44.6905 9.997 45.0176C9.69396 45.442 9.05402 46.378 8.43545 47.2831L7.84016 48.1534C7.178 49.1206 6.84047 49.5403 6.37364 50.1208L6.15207 50.397C5.60778 51.0779 4.61761 52.1555 3.99122 52.7484L3.9709 52.7673C3.35657 53.3485 3.1915 53.5048 2.42565 54.585C1.66191 55.662 0.406583 57.8267 0.394944 57.8471L0.147136 58.2741C0.147136 58.2741 -0.0257564 58.5836 0.459277 58.5836H4.7668C5.22263 58.5836 5.31723 58.2415 5.31723 58.2415C5.44357 57.9318 5.87802 56.8716 6.15609 56.2502C6.39692 55.7122 6.83941 54.6301 7.00744 54.2217C7.00744 54.2217 7.88376 54.2217 8.1758 54.2217C8.62888 54.2217 8.63882 53.8284 8.63882 53.8284C8.64686 53.7918 8.66866 53.6033 8.86166 53.0336C9.04111 52.5021 9.43409 51.7135 9.9132 50.9247C10.3157 50.2614 10.685 49.716 11.6921 48.4106C12.3373 47.5743 13.0312 46.7994 13.497 46.3431C13.5708 46.3956 13.7748 46.5356 13.8705 46.5994C14.4108 46.9613 14.8755 47.0919 15.5438 47.2878C16.3079 47.5127 17.2681 47.5763 18.2917 47.6452L18.5611 47.663C19.2107 47.7069 20.1294 47.7162 20.786 47.7162C21.211 47.7162 21.5077 47.7118 21.5077 47.7118C21.5077 47.7118 21.7921 47.6907 21.8869 47.6907C22.4745 47.6907 22.031 47.0951 22.031 47.0951L19.7182 44.1208C19.7182 44.1208 19.5138 43.7613 18.8946 43.8206C18.0934 43.8979 16.6628 43.9615 16.2116 43.9866C16.1543 43.981 16.1143 43.86 16.1543 43.7256C16.6002 43.2674 17.7135 42.0876 18.2364 41.53C18.4 41.3558 18.608 41.1363 18.8376 40.894L18.9449 40.7802C19.4431 40.2541 20.0746 39.5211 20.5253 39.0329C20.8114 39.2656 21.2391 39.6151 21.6888 39.9867C22.2242 40.4305 22.5988 40.6032 23.0243 40.6032C23.372 40.6032 23.6986 40.4826 24.1222 40.3126C24.9052 39.9978 26.9471 39.212 28.985 38.7196C30.9882 38.2363 32.7352 37.8402 35.4371 37.5177C37.5571 37.2637 39.1674 37.2311 39.8029 37.2297C40.0138 37.4843 40.6726 38.2416 41.0343 38.6243C41.5348 39.1527 42.4233 39.9874 42.8252 40.3265C43.0946 40.5534 43.1562 40.6898 42.9922 41.0099C42.7378 41.5071 42.2344 42.3158 41.474 43.322C40.7141 44.3269 39.0395 46.3576 37.817 47.84L37.1925 48.598C36.5938 49.3253 36.1338 49.852 35.726 50.318C35.3461 50.7518 35.0181 51.127 34.6721 51.5569C34.0383 52.3449 33.6638 52.9966 33.1876 54.1407C32.5866 55.5855 31.9039 57.6108 31.8263 57.8418L31.6161 58.5838C31.6161 58.5838 34.7058 58.5838 35.7357 58.5838C36.0724 58.5838 36.2402 58.3594 36.2402 58.3594C36.2402 58.3594 36.7809 57.7497 36.9635 57.5487C37.0979 57.4011 37.0765 57.233 37.0765 57.233C37.0765 57.2264 37.0801 56.5619 37.1185 56.0681C37.1584 55.5521 37.2839 54.3608 37.3244 54.0373C37.3411 53.9735 37.5231 53.8718 37.7201 53.8509C38.0009 53.8209 38.3365 53.816 38.4313 53.8188C38.8495 53.8305 38.9147 53.4948 38.9147 53.4948C38.9437 53.4117 38.9695 53.3281 38.9983 53.2308C39.0472 53.0675 39.1032 52.8824 39.2169 52.5978C39.3449 52.2785 39.6657 51.2821 40.3598 50.1277C41.0042 49.0564 42.1307 47.7683 43.1534 46.8277C44.1914 45.873 45.3008 45.0404 46.9823 43.9538C48.4124 43.03 49.7799 42.4316 50.1458 42.2948C50.5665 42.1382 50.8822 41.8878 50.7648 41.4373C50.7123 41.2429 50.5557 40.4607 50.4886 39.8272C50.4556 39.5183 50.4543 38.83 50.4495 38.4392C50.8579 38.6268 51.7374 39.1161 52.8124 39.6823C54.4038 40.5205 55.8985 41.4703 56.8395 42.2501C57.7648 43.0166 58.6269 44.3893 59.3724 45.6545C59.9044 46.558 60.5382 47.9132 61.2275 49.2066C61.48 49.6809 61.7172 50.1774 61.9347 50.6052C62.3175 51.3602 62.6064 52.0475 62.9268 52.6844C63.3073 53.441 63.6357 54.0939 63.8702 54.4683C64.2865 55.1328 64.5559 55.4538 64.8551 55.7561C65.1323 56.0362 65.451 56.3287 65.9441 56.7773C66.3521 57.1483 67.1994 58.0356 67.5759 58.3968C67.7968 58.6085 67.9972 58.5802 67.9778 58.5838C67.9778 58.5838 69.6504 58.5838 70.208 58.5838C70.5621 58.5821 70.4749 58.2615 70.4749 58.2615ZM31.3603 10.3433C31.6646 10.152 32.3883 9.85143 33.2145 9.85143C34.5989 9.85143 35.8915 10.5875 36.0692 10.8729C36.2466 11.1584 35.0856 12.2888 33.4009 12.2888C32.3705 12.2888 31.6902 11.7783 31.4102 11.4871C31.3431 11.4175 31.3355 11.2799 31.472 11.3156C32.2057 11.5071 34.1462 11.8357 35.3529 10.8874C35.3834 10.8636 35.3931 10.7978 35.3167 10.7495C34.8431 10.4494 33.0276 9.68253 31.3958 10.4058C31.282 10.456 31.1546 10.4722 31.3603 10.3433ZM23.1452 4.94563C23.1452 4.93223 22.0663 5.71782 22.0663 5.71782L21.8335 5.51509L23.1913 4.5438C23.1913 4.5438 27.0347 8.0384 31.5179 6.24154C32.1879 5.97287 32.3206 5.86927 32.6969 6.17985C33.1453 6.54956 35.3677 8.13498 39.7633 5.37278C40.2483 5.12134 40.5787 5.67825 41.699 5.90161C43.4685 6.25473 46.7956 5.58338 50.6268 0.753515C50.6403 0.754153 51.8009 0.753515 51.8009 0.753515C51.8009 0.753515 47.2616 6.43596 42.5704 6.31173C40.8935 6.26749 40.4068 5.75079 40.1922 5.86098C34.524 8.76421 32.7455 6.34407 32.3447 6.48383C29.2455 7.56276 26.1559 7.15965 23.1452 4.94563ZM10.8151 27.929C10.6071 28.1532 10.4634 28.3166 10.3529 28.4644C10.3445 28.4757 10.3333 28.4889 10.3259 28.4993C10.3208 28.5065 10.3159 28.5144 10.3108 28.5216C10.1341 28.7759 10.0359 29.1047 10.0359 29.1047C10.0359 29.1047 9.94304 29.2855 9.93563 29.5046C9.76824 29.3045 9.6529 29.0341 9.88315 28.4842C10.1872 27.7576 10.3263 27.5093 10.9503 26.2432C12.3834 23.3348 13.4762 22.3219 15.6631 20.4561C16.7572 19.5224 19.1119 17.65 20.0121 16.9498C20.9119 16.2497 21.8316 15.4911 22.0665 15.2939C22.3012 15.0948 22.3613 14.8804 22.0227 14.7834C21.3339 14.586 20.5477 14.4345 19.5646 14.2871C18.5812 14.1389 17.478 14.0129 17.2141 13.9831C16.95 13.9521 16.8799 13.8974 16.8135 13.6843C16.7475 13.4707 16.685 13.3229 16.5807 12.8844C16.5807 12.8844 16.1951 11.7866 16.4692 11.3413C16.7454 10.8931 17.4361 10.8032 18.0726 10.7357C18.7092 10.6685 20.4115 10.4677 21.0815 10.4005C21.7512 10.3333 22.421 10.1648 23.0912 9.76082C23.7612 9.35664 24.1967 9.02139 25.2466 9.02139C26.0088 9.02139 26.7247 9.12371 26.7647 9.16498C26.7647 9.16498 27.0623 9.38217 26.3125 9.2824C25.7735 9.21093 24.9023 9.22795 24.301 9.44088C24.0414 9.53278 23.8524 9.65041 23.3835 9.95312C22.9143 10.2567 22.1694 10.559 21.2795 10.6615C20.5143 10.7493 17.6081 11.0542 17.2384 11.155C16.8854 11.2516 16.4984 11.4371 16.7064 12.3043L16.71 12.305L16.7401 12.3092C16.8357 12.3309 17.1557 12.4011 17.3874 12.4343C17.559 12.4592 18.1668 12.5409 18.7902 12.616C19.1661 12.6611 19.5485 12.704 19.8439 12.7311C21.0525 12.8393 22.2312 12.9183 23.4493 12.9578C24.6678 12.9974 26.0729 12.9774 26.4462 12.948C26.6915 12.9287 27.0125 12.9397 27.2043 13.0614C27.4739 13.2584 27.3365 13.6456 27.1704 13.9442C27.1107 14.0512 27.0489 14.1572 26.9802 14.2671C26.8602 14.4486 26.7235 14.6356 26.5836 14.8242C26.5664 14.8472 26.5478 14.8713 26.5296 14.8949C26.4938 14.9389 26.4579 14.9838 26.4183 15.0312C26.2674 15.2116 26.0793 15.4156 25.8605 15.6522C25.8421 15.6722 25.8217 15.693 25.8029 15.713C25.6381 15.8828 25.4827 16.0363 25.3564 16.158C25.3062 16.2067 25.259 16.2529 25.2053 16.3027C25.1852 16.3216 25.1661 16.3399 25.1456 16.3586C25.1086 16.3926 25.0684 16.4286 25.0294 16.4635C24.741 16.7205 24.2509 17.1357 24.0979 17.2642C23.9212 17.4118 23.273 17.916 23.0664 18.084C22.9695 18.1627 22.6995 18.3712 22.4401 18.5701C22.0642 18.8551 21.6596 19.157 21.223 19.478C20.9354 19.6894 20.6326 19.9104 20.3192 20.1385C18.7009 21.3167 16.8101 22.678 15.3381 23.8245C15.2797 23.8688 15.2304 23.9062 15.1997 23.9294C15.0653 24.0319 14.8918 24.1715 14.7068 24.324C14.4368 24.5418 14.1873 24.7486 13.9661 24.9405C12.2842 26.3989 11.3103 27.3951 10.8151 27.929ZM26.1313 10.2694C26.1313 10.2694 25.7966 10.971 24.9668 10.9565C24.1368 10.9423 23.7472 10.4543 23.7472 10.4543C23.7472 10.4543 24.0518 10.0086 24.9094 9.9746C25.7676 9.94035 26.1313 10.2694 26.1313 10.2694ZM5.82173 52.4289C5.29691 53.0649 4.5063 53.7254 4.26463 53.9571C3.46746 54.721 2.44004 56.7144 1.74593 58.1628C1.63948 58.1628 0.83321 58.1628 0.83321 58.1628C0.83321 58.1628 2.63875 54.5604 3.64141 53.631C4.12031 53.1874 5.0307 52.3761 5.65371 51.6592C7.89096 49.0842 10.9474 44.2155 10.9474 44.2155L11.439 44.6532C11.4388 44.653 7.98597 49.8056 5.82173 52.4289ZM35.4113 37.1375C32.678 37.4645 30.9366 37.8578 28.89 38.3524C26.8432 38.8472 24.8132 39.6232 23.9504 39.9695C23.0876 40.3165 22.7996 40.3811 22.0001 39.7198C21.205 39.0623 20.4769 38.4734 20.4769 38.4734C20.3035 38.6662 20.0746 38.9142 19.8215 39.1848C19.602 39.0176 19.0486 38.6572 17.7783 38.0952C16.4772 37.52 15.1986 37.1843 14.6025 37.0448C14.2055 36.9399 13.6248 36.8108 12.8439 36.7004C11.1992 36.467 9.82664 36.4362 9.42287 36.426C9.09825 36.4179 8.7387 36.4294 8.60877 36.4341C8.4035 36.2477 8.18997 36.1192 8.18997 36.1192C8.18997 36.1192 10.0571 36.0505 12.1754 36.3015C14.2937 36.5526 15.6339 36.9625 16.6768 37.2382C18.0794 37.6087 19.8149 38.6106 19.8149 38.6106C19.8149 38.6106 20.0672 38.3226 20.4275 38.0127C20.4297 38.011 20.4318 38.0089 20.4335 38.0076C20.4335 38.0076 20.4955 37.9565 20.5808 37.8904C20.6711 37.8221 20.8032 37.7268 20.9797 37.6094C21.0958 37.5332 21.2334 37.4454 21.3877 37.3492C21.5737 37.236 21.7851 37.112 22.0293 36.9786C22.2043 36.8836 22.3905 36.7863 22.5598 36.6991C22.832 36.5611 23.1316 36.4166 23.4618 36.2671C23.5166 36.2424 23.5714 36.2179 23.6279 36.1926C23.7523 36.1373 23.8784 36.0818 24.0111 36.0259C24.2399 35.9286 24.4691 35.834 24.6985 35.7412C25.1187 35.5751 25.72 35.3443 26.0533 35.219C26.2503 35.1475 26.4488 35.0778 26.6481 35.0095C26.9239 34.915 27.2017 34.8238 27.4834 34.7357C27.7411 34.6553 28.0023 34.5776 28.2666 34.503C28.3627 34.4753 28.4596 34.4487 28.5563 34.4224C28.7959 34.3571 29.0382 34.2941 29.2841 34.2335C29.5317 34.1726 29.7824 34.1137 30.0379 34.0575C30.3015 33.9999 30.5705 33.9456 30.8429 33.8935C31.1302 33.8384 31.4212 33.7859 31.7198 33.7372C31.8931 33.7089 32.0681 33.6812 32.2459 33.6551C32.2671 33.6519 32.2931 33.6485 32.3159 33.6455C32.6097 33.6029 32.9083 33.563 33.21 33.5268C33.5497 33.4862 33.8923 33.4492 34.2322 33.4158C34.6061 33.3811 35.0535 33.3417 35.3324 33.3181C35.5029 33.3045 35.6718 33.2917 35.8377 33.2798C36.16 33.2577 36.623 33.2275 36.9322 33.2111C37.2378 33.195 37.7958 33.1671 38.0779 33.1533C38.8108 35.7374 39.58 36.848 39.5804 36.8485C38.8427 36.8578 37.3267 36.9084 35.4113 37.1375ZM15.0113 37.6842C15.0113 37.6842 15.4562 37.7615 15.7505 37.8848L13.1235 41.7347L12.5705 41.3161L15.0113 37.6842ZM12.3619 41.1608C12.3089 41.1129 12.2463 41.0593 12.1754 40.997C11.9678 40.814 11.6893 40.5613 11.374 40.1944L11.2219 40.0184C10.7226 39.439 10.5032 39.2184 9.93182 38.3692C9.62455 37.9129 9.35748 37.4164 9.18417 36.9599C9.2322 36.9606 9.55429 36.9695 9.61164 36.971C10.0448 36.9814 11.363 37.0144 12.9491 37.2394C13.3628 37.2982 13.7166 37.3622 14.0176 37.4247C14.2728 37.4777 14.4901 37.5298 14.6675 37.5772C14.2597 38.2048 13.6777 39.1067 13.497 39.4167C13.3203 39.7191 12.6784 40.6809 12.3619 41.1608ZM43.98 41.6092C43.3297 42.6939 41.5885 44.9559 39.9372 47.0591C38.6533 48.6943 37.2241 50.2059 36.12 51.4846C35.016 52.7631 34.6091 53.8065 34.1922 54.9156C33.9403 55.5872 33.296 57.6623 33.1146 58.1628H32.1505C32.2961 57.7274 32.9379 55.6599 33.5021 54.304C33.9797 53.156 34.3422 52.5506 34.9191 51.8335C35.6303 50.949 36.2847 50.2787 37.441 48.8726C38.5979 47.4661 40.8303 44.7779 41.7434 43.5703C42.1802 42.9923 42.5323 42.513 42.8005 42.1055C43.5758 40.9276 43.5936 40.7381 43.5614 40.5507C43.5424 40.4394 43.2489 40.0816 42.4471 39.3843C42.2773 39.2371 42.0841 39.0433 41.8687 38.8355C41.8105 38.7793 41.75 38.7191 41.6899 38.6604C41.6272 38.5985 41.5676 38.539 41.5098 38.4809C41.4554 38.4262 41.4016 38.3713 41.347 38.315C41.3231 38.2901 41.298 38.2641 41.2753 38.2403C41.0592 38.0118 40.7962 37.7068 40.5588 37.4309C40.3738 37.2135 40.2153 37.0227 40.1323 36.9223C40.0934 36.8753 40.0703 36.847 40.0703 36.847C39.2112 35.58 38.7164 33.8869 38.5321 33.1652C38.7687 33.212 38.9202 33.3375 39.0127 33.5579C39.0558 33.661 39.5 35.4828 40.4568 36.6647C42.2223 38.8455 43.6651 39.734 43.9663 40.0193C44.3973 40.4273 44.5861 40.5988 43.98 41.6092ZM50.0552 37.937C49.909 39.5447 50.2726 41.3354 50.325 41.5328C50.3798 41.7415 50.2254 41.7998 50.0465 41.8664C49.9363 41.5281 49.7103 40.7951 49.661 40.3326C49.5943 39.7151 49.5044 38.8076 49.5463 38.0812C49.5884 37.3552 49.6669 35.8299 50.4012 34.4387C51.202 32.8952 51.7376 32.5381 52.8933 31.6425C54.0489 30.7472 55.0143 30.4776 55.777 30.2273C56.3014 30.0552 56.6258 30.0562 56.7809 29.9852C57.016 29.8775 56.3793 29.0656 56.1516 28.8399C55.6979 28.3906 49.268 25.163 49.2079 25.1296C48.9798 25.0019 48.4137 24.7699 47.8152 24.7948C40.2343 25.1113 31.1271 25.2272 28.5091 25.2064C26.2585 25.1881 20.6565 25.3191 19.3974 26.1417C18.0862 26.9986 15.3838 30.413 15.3838 30.413L13.8783 32.4836L14.7034 33.1828C14.7034 33.1828 12.3151 33.356 10.6826 33.5281C9.04936 33.7006 6.56219 34.0616 6.18593 34.1205C5.80925 34.1799 5.65201 34.2132 5.53308 34.5706C5.41457 34.9286 5.09905 35.901 5.0527 36.0412C5.00615 36.1816 5.02181 36.282 5.11407 36.4145C5.20634 36.5468 5.6863 37.1407 6.668 38.2428C7.64971 39.3452 9.00535 40.8189 10.0823 41.8904C11.1599 42.9617 11.6794 43.5401 12.8103 44.4746C13.941 45.4088 15.074 46.3252 17.0181 46.4937C18.6408 46.6345 20.2426 46.6079 20.8948 46.5882L21.4687 47.3274C21.4687 47.3274 19.6268 47.3512 18.5545 47.2787C17.4831 47.2063 16.4176 47.1519 15.6348 46.9217C14.8524 46.692 14.3287 46.3952 13.9674 46.1536C13.6062 45.9111 13.4013 45.7417 13.4013 45.7417L11.1861 43.8175C11.1861 43.8175 9.70496 42.4137 8.75373 41.4575C7.80271 40.5013 7.10902 39.76 6.17323 38.7066C5.23681 37.654 4.50122 36.7602 4.40451 36.6389C4.30823 36.5181 4.11882 36.3739 4.26315 35.9138C4.40747 35.4543 4.69676 34.5464 4.86478 34.1713C5.03345 33.7965 5.06984 33.6389 5.61138 33.5423C6.15334 33.4453 7.53924 33.2381 9.09084 33.0463C10.6429 32.8535 13.4498 32.4936 13.4498 32.4936C13.4498 32.4936 13.2568 32.3334 12.9859 32.1092L14.2565 30.3538C14.4059 30.1549 14.5623 29.9471 14.7216 29.7361L15.7664 28.3551C15.7664 28.3551 16.6539 27.1943 17.0238 26.7284C17.1195 26.6127 17.2217 26.4925 17.3296 26.3708C17.5326 26.1511 17.7908 25.8922 17.989 25.7037C18.0284 25.668 18.0646 25.6297 18.1048 25.5948C18.2176 25.4974 18.3338 25.4051 18.4525 25.3191C18.6827 25.16 18.9604 25.0015 19.1963 24.9001C19.317 24.8526 19.4382 24.8126 19.5612 24.7879C19.7567 24.7477 19.9425 24.7126 20.1243 24.681C20.4479 24.6299 20.79 24.5844 21.0518 24.5416C21.0518 24.5416 23.3703 24.2551 24.2054 24.1562C25.0402 24.0575 26.3362 23.8601 26.3362 23.8601C26.3362 23.8601 26.3383 23.8569 26.3413 23.8513C26.5622 23.8564 26.6915 23.8588 26.6915 23.8588C29.3334 23.9343 34.4446 24.0287 36.2927 24.0111C38.1408 23.9928 41.5855 23.9768 43.5619 23.9466C44.9232 23.9256 47.3171 23.8488 48.1542 23.8622C48.5347 23.8684 48.8553 23.8998 49.1742 24.0268C49.4335 24.13 50.1054 24.4506 51.5395 25.22C52.9737 25.9892 55.0346 27.2855 56.0106 27.9701C56.9866 28.6542 57.5366 29.6593 57.6329 29.8773C57.7292 30.0954 57.8767 30.4153 57.3707 30.4153C56.8647 30.4153 56.4282 30.4776 56.0699 30.5604C55.7954 30.6236 55.3087 30.8171 54.9661 30.9722C52.6702 32.0109 50.4256 33.8644 50.0552 37.937ZM61.7931 45.4841C60.039 41.733 60.6231 39.5517 59.9224 39.1203C59.2218 38.6887 55.7372 38.2484 54.6298 31.6838L55.337 31.3307C55.337 31.3307 55.5368 37.1709 60.2162 38.4843C60.7632 38.6066 60.7759 39.2409 60.8062 39.8213C60.8366 40.4018 61.5346 47.8022 66.7997 50.8262L66.4958 51.1136C65.2432 50.3795 63.4256 48.9747 61.7931 45.4841ZM69.7937 58.1626L67.9995 53.2423L66.2408 52.842L66.5942 52.5138L68.2425 52.8835L70.1407 58.1624H69.7937V58.1626Z" fill="#292B2E"/>
</svg>
