<svg width="401" height="52" viewBox="0 0 401 52" fill="none" xmlns="http://www.w3.org/2000/svg">
<g clip-path="url(#clip0_3935_1741)">
<path fill-rule="evenodd" clip-rule="evenodd" d="M374.277 13.3128H357.897C355.148 13.4754 354.38 14.1571 354.38 17.4947V26.6955H374.277V13.3128ZM382.999 5.94504V46.0652H374.277V34.5328H354.38V46.0652H345.658V14.6127C345.658 9.0554 347.909 5.94504 354.38 5.94504H382.999ZM336.938 14.6051V36.3173C336.938 43.2295 333.055 46.0577 328.215 46.0577H300.706V5.9375H328.215C335.644 5.9375 336.938 10.6612 336.938 14.6051ZM328.112 17.0198C328.112 14.8216 326.772 13.3052 324.426 13.3052H309.428V38.3733L324.426 38.3722C327.843 38.1989 328.112 36.1504 328.112 34.5252V17.0198ZM122.922 5.9375H131.643V21.751H151.156V5.9375H159.878V46.0566H151.156V29.6841H131.643V46.0566H122.922V5.9375ZM174.825 5.9375L185.759 22.339L196.561 5.9375H207.151L190.116 31.5872V46.0577H181.393V31.585L164.239 5.9375H174.825ZM256.108 5.9375H284.214C288.219 5.9375 292.097 6.49969 291.984 14.6051V46.0577H283.263V17.4872C283.263 14.0322 282.848 13.3052 280.137 13.3052H264.832V46.0577H256.108V5.9375ZM400.443 5.94504V46.0652H391.719V5.94504H400.443ZM211.513 46.0577H239.616C245.204 46.0577 247.501 44.4411 247.388 36.3852V5.9375H238.666V34.578C238.666 38.0115 238.252 38.4283 235.541 38.4283H220.236L220.235 5.9375H211.513V46.0577Z" fill="#292B2E"/>
<path fill-rule="evenodd" clip-rule="evenodd" d="M61.3624 31.9473C62.1314 35.9214 60.0485 39.2224 58.3177 42.4265C56.3953 45.4076 53.2225 47.9698 49.4089 47.5863C40.8511 47.4582 32.4871 46.1443 24.7306 43.8039C24.3784 43.7081 24.0263 43.483 23.8335 43.1631C23.673 42.714 23.8981 42.2972 24.218 42.0097C31.3014 36.2725 39.7299 33.6134 48.0626 30.824C51.1708 29.9269 54.4729 28.9651 57.9656 29.4142C59.4066 29.607 60.8487 30.6011 61.3624 31.9473ZM90.5586 14.962C94.5327 18.2307 98.1224 22.6863 96.9043 28.0701C94.9172 36.0184 86.2647 40.2488 79.3741 42.9402C75.624 44.1906 71.8426 45.4733 67.7404 45.8578C67.484 45.8255 67.0672 45.889 67.0026 45.5045L67.0985 45.0565C72.9315 38.4858 77.3536 31.1159 81.2329 23.648C83.0272 20.2824 84.6944 16.822 86.2324 13.4241C86.4564 13.1678 86.6815 13.0396 86.9378 12.9438C88.3788 13.0708 89.4052 14.1931 90.5586 14.962ZM34.6325 6.50118L34.5043 6.98152C26.0758 16.5635 20.5314 27.6846 15.2757 38.741C14.2504 39.7028 13.2563 38.4201 12.3269 38.0033C7.64734 34.9274 3.4169 29.9592 4.63498 24.0626C6.58973 16.3718 14.5056 12.2696 21.1087 9.4823C25.0182 8.0079 29.0892 6.82213 33.3832 6.14901C33.8323 6.14793 34.4085 6.08439 34.6325 6.50118ZM76.4576 8.03913C76.9379 8.29546 77.5152 8.39131 77.8038 8.87165C78.0601 9.41661 77.5475 9.76878 77.2588 10.122C70.6246 15.3131 63.0296 18.1984 55.2731 20.7304C51.3302 21.6922 47.3561 23.4229 42.9663 22.4612C41.9399 22.2048 41.0115 21.5317 40.4343 20.5376C39.3443 17.5253 40.8187 14.3848 42.1004 11.7569C43.7988 8.45593 46.8122 4.57767 50.978 4.51413C59.9515 4.44951 68.4124 5.79575 76.4576 8.03913ZM87.5463 8.29546C94.341 12.0132 102.033 18.5506 101.232 27.2678C100.302 35.3442 92.7708 40.9844 86.0406 44.3823C66.3941 53.7726 38.8005 54.0602 18.5131 45.8567C11.6538 43.0048 3.96186 38.1013 1.0766 30.7292C-1.13447 24.6722 1.55693 18.3589 6.07708 14.1608C15.5309 5.57174 27.5814 2.62401 39.9852 0.92451C53.4465 -0.710367 67.6111 0.731728 79.6616 4.86631C82.3541 5.86037 85.0143 6.95029 87.5463 8.29546Z" fill="#292B2E"/>
</g>
<defs>
<clipPath id="clip0_3935_1741">
<rect width="400.156" height="51.4681" fill="white" transform="translate(0.289062 0.265625)"/>
</clipPath>
</defs>
</svg>
