<svg width="120" height="74" viewBox="0 0 120 74" fill="none" xmlns="http://www.w3.org/2000/svg">
<path fill-rule="evenodd" clip-rule="evenodd" d="M43.7852 66.0438H75.9692V7.94922H43.7852V66.0438Z" fill="#292B2E" fill-opacity="0.68"/>
<path fill-rule="evenodd" clip-rule="evenodd" d="M45.8323 37.0014C45.8323 25.2154 51.3261 14.7184 59.8809 7.9541C53.6239 3.00632 45.7301 0.0546875 37.1498 0.0546875C16.8371 0.0546875 0.371094 16.5965 0.371094 37.0014C0.371094 57.4062 16.8371 73.9481 37.1498 73.9481C45.7301 73.9481 53.6239 70.9964 59.8809 66.0487C51.3261 59.2833 45.8323 48.7874 45.8323 37.0014Z" fill="#333639"/>
<path fill-rule="evenodd" clip-rule="evenodd" d="M118.244 59.896V58.4623H117.871L117.443 59.4485L117.014 58.4623H116.641V59.896H116.904V58.8143L117.306 59.7472H117.579L117.982 58.8122V59.896H118.244ZM115.883 59.896V58.7065H116.361V58.4643H115.145V58.7065H115.622V59.896H115.883ZM119.393 37.0014C119.393 57.4062 102.926 73.9481 82.6139 73.9481C74.0336 73.9481 66.1388 70.9964 59.8828 66.0487C68.4376 59.2843 73.9314 48.7874 73.9314 37.0014C73.9314 25.2164 68.4376 14.7194 59.8828 7.95409C66.1388 3.00632 74.0336 0.0546875 82.6139 0.0546875C102.926 0.0546875 119.393 16.5965 119.393 37.0014Z" fill="#292B2E"/>
</svg>
