<svg width="155" height="44" viewBox="0 0 155 44" fill="none" xmlns="http://www.w3.org/2000/svg">
<path d="M110.156 20.9219V43.5172H123.917V30.8034H137.773C145.015 30.8034 151.188 26.6966 153.57 20.9297L110.156 20.9219Z" fill="#292B2E"/>
<path d="M149.356 4.47318C146.57 1.90529 142.921 0.481166 139.133 0.48438H109.52C109.578 1.61632 109.739 2.74065 109.999 3.84378C110.062 4.08767 110.117 4.33157 110.188 4.57546L110.267 4.86655C111.5 8.76927 113.944 12.1774 117.244 14.5964C120.544 17.0155 124.529 18.3197 128.62 18.3199H154.034C154.504 15.8042 154.321 13.2099 153.502 10.7854C152.683 8.36087 151.255 6.18742 149.356 4.47318Z" fill="#292B2E"/>
<path d="M85.7394 5.03188L76.1067 25.92H75.1316V0.46875H61.4414V43.5116H73.0557C74.5461 43.5084 76.0044 43.0785 77.2585 42.2728C78.5125 41.467 79.5099 40.3189 80.1328 38.9642L89.7733 18.0761H90.7484V43.5116H104.439V0.46875H92.8243C91.3354 0.478591 89.8799 0.911179 88.627 1.71619C87.3742 2.5212 86.3756 3.66555 85.7473 5.01614" fill="#292B2E"/>
<path d="M22.0476 6.14119L27.7486 25.92H28.7316L34.4325 6.14119C34.9088 4.51362 35.898 3.0836 37.2527 2.06425C38.6073 1.04489 40.255 0.49078 41.95 0.484488H55.6165V43.5273H41.9343V18.0919H40.9199L33.0564 43.5273H23.2822L15.4581 18.0919H14.483V43.5273H0.816406V0.46875H14.483C16.1781 0.475041 17.8257 1.02915 19.1804 2.04851C20.535 3.06786 21.5241 4.49788 22.0004 6.12545" fill="#292B2E"/>
</svg>
