<svg width="131" height="130" viewBox="0 0 131 130" fill="none" xmlns="http://www.w3.org/2000/svg">
<path d="M130.809 0H0.808594V130H130.809V0Z"/>
<path d="M87.4141 9.91016V15.9754H100.48V39.7025L100.484 40.0917H107.8V15.9754H120.866V9.91016H87.4141Z" fill="white"/>
<path d="M40.3643 9.99609L30.8089 29.8397L21.2534 9.99609H10.8203V39.9996H18.1359V18.5289L27.476 36.6668H34.1417L43.4859 18.5289V39.9996H50.8015V9.99609H40.3643Z" fill="white"/>
<path d="M113.534 110.001C113.398 111.109 112.891 112.138 112.098 112.924C111.277 113.674 110.266 114.183 109.175 114.397C107.582 114.715 105.959 114.862 104.335 114.836C102.604 114.869 100.88 114.617 99.2302 114.091C97.8794 113.657 96.7132 112.782 95.9181 111.607C95.1191 110.427 94.7258 108.709 94.7258 106.556V103.48C94.7258 101.298 95.1398 99.5924 95.9181 98.4125C96.7137 97.2377 97.8797 96.3632 99.2302 95.9284C100.871 95.3984 102.586 95.1383 104.31 95.1583C105.934 95.1347 107.557 95.2818 109.15 95.5972C110.242 95.8154 111.253 96.3263 112.077 97.0752C112.868 97.862 113.372 98.8911 113.51 99.9981H120.829C120.696 97.6905 119.815 95.489 118.32 93.7258C116.846 92.1051 114.938 90.9412 112.822 90.3723C110.047 89.6391 107.184 89.2963 104.314 89.3539C100.808 89.3539 97.7646 89.859 95.2723 90.8526C92.8072 91.8008 90.7422 93.5662 89.4223 95.8539C88.1347 98.0688 87.4557 101.025 87.4102 104.648V104.983V105.314C87.4557 108.937 88.1347 111.893 89.4223 114.108C90.7422 116.395 92.8072 118.161 95.2723 119.109C97.7563 120.103 100.812 120.612 104.314 120.612C107.184 120.669 110.047 120.327 112.822 119.593C114.938 119.023 116.846 117.858 118.32 116.236C119.815 114.473 120.696 112.271 120.829 109.963L113.534 110.001Z" fill="white"/>
<path d="M130.809 0H0.808594V130H130.809V0Z" fill="#292B2E"/>
<path d="M87.4141 9.91016V15.9754H100.48V39.7025L100.484 40.0917H107.8V15.9754H120.866V9.91016H87.4141Z" fill="white" fill-opacity="0.2"/>
<path d="M40.3643 9.99609L30.8089 29.8397L21.2534 9.99609H10.8203V39.9996H18.1359V18.5289L27.476 36.6668H34.1417L43.4859 18.5289V39.9996H50.8015V9.99609H40.3643Z" fill="white" fill-opacity="0.2"/>
<path d="M113.534 110.001C113.398 111.109 112.891 112.138 112.098 112.924C111.276 113.673 110.265 114.182 109.175 114.397C107.582 114.715 105.959 114.862 104.335 114.836C102.604 114.869 100.88 114.617 99.2302 114.091C97.8794 113.657 96.7132 112.782 95.9181 111.607C95.1191 110.427 94.7258 108.709 94.7258 106.556V103.48C94.7258 101.298 95.1398 99.5924 95.9181 98.4125C96.7137 97.2377 97.8797 96.3632 99.2302 95.9284C100.871 95.3984 102.586 95.1383 104.31 95.1583C105.934 95.1347 107.557 95.2818 109.15 95.5972C110.242 95.8154 111.253 96.3263 112.077 97.0752C112.868 97.862 113.372 98.8911 113.51 99.9981H120.829C120.696 97.6905 119.815 95.489 118.32 93.7258C116.846 92.1051 114.938 90.9412 112.822 90.3723C110.047 89.6391 107.184 89.2963 104.314 89.3539C100.808 89.3539 97.7646 89.859 95.2723 90.8526C92.8072 91.8008 90.7422 93.5662 89.4223 95.8539C88.1347 98.0688 87.4557 101.025 87.4102 104.648V104.983V105.314C87.4557 108.937 88.1347 111.893 89.4223 114.108C90.7422 116.395 92.8072 118.161 95.2723 119.109C97.7563 120.103 100.812 120.608 104.314 120.608C107.184 120.667 110.047 120.325 112.822 119.593C114.938 119.023 116.846 117.858 118.32 116.236C119.815 114.473 120.696 112.271 120.829 109.963L113.534 110.001Z" fill="white" fill-opacity="0.2"/>
</svg>
