<svg width="210" height="46" viewBox="0 0 210 46" fill="none" xmlns="http://www.w3.org/2000/svg">
<path fill-rule="evenodd" clip-rule="evenodd" d="M25.3684 0.126571C20.6505 -0.371206 15.8944 0.606859 11.754 2.92633C7.6135 5.2458 4.2919 8.79281 2.24573 13.0798C0.199563 17.3668 -0.470734 22.1834 0.326977 26.8674C1.12469 31.5515 3.35125 35.8731 6.70061 39.2383C10.05 42.6034 14.3577 44.8469 19.0317 45.6604C23.7057 46.4739 28.5166 45.8174 32.803 43.7812C37.0894 41.745 40.6409 38.429 42.9695 34.2891C45.298 30.1491 46.2892 25.3884 45.8068 20.6613C45.276 15.4069 42.9537 10.4961 39.2311 6.75589C35.5084 3.01568 30.6128 0.674502 25.3684 0.126571ZM24.6244 35.1716C22.0869 35.5126 19.5066 35.0486 17.246 33.8448C14.9854 32.6411 13.1583 30.7581 12.0213 28.4605C10.8843 26.1629 10.4948 23.5662 10.9073 21.0354C11.3198 18.5046 12.5137 16.1669 14.3212 14.3508C16.1287 12.5347 18.4589 11.3316 20.9843 10.9105C23.5097 10.4894 26.1034 10.8715 28.4009 12.0031C30.6983 13.1347 32.5839 14.9589 33.7928 17.2193C35.0017 19.4798 35.473 22.0628 35.1406 24.6054C34.7917 27.2798 33.5723 29.7644 31.6712 31.6745C29.7701 33.5847 27.2933 34.8138 24.6244 35.1716ZM58.0887 1.03648C57.2923 1.03839 56.5063 1.21811 55.7879 1.56258C55.0696 1.90705 54.4369 2.40759 53.936 3.02778C53.4351 3.64798 53.0786 4.37222 52.8923 5.14781C52.706 5.92341 52.6947 6.73084 52.8592 7.51136C53.3631 10.04 55.7211 11.7677 58.2899 11.7677H73.197L49.9982 42.5177C49.8266 42.7448 49.7216 43.0152 49.6948 43.2986C49.6681 43.5821 49.7207 43.8674 49.8467 44.1226C49.9728 44.3778 50.1673 44.5928 50.4085 44.7434C50.6497 44.8941 50.9281 44.9745 51.2123 44.9756H87.6019C90.1689 44.9756 92.5287 43.2483 93.0326 40.7192C93.1971 39.9388 93.1859 39.1315 92.9998 38.356C92.8137 37.5805 92.4573 36.8563 91.9567 36.236C91.456 35.6158 90.8236 35.1151 90.1055 34.7705C89.3874 34.4258 88.6016 34.2458 87.8053 34.2435H69.6421L92.8232 3.51733C92.9964 3.28811 93.1025 3.01507 93.1294 2.72885C93.1564 2.44262 93.1032 2.15454 92.9758 1.89691C92.8484 1.63928 92.6519 1.4223 92.4082 1.27032C92.1646 1.11834 91.8835 1.03736 91.5964 1.03648H58.0887ZM203.499 1.16026C202.294 1.4472 201.223 2.13736 200.463 3.11664C199.703 4.09592 199.3 5.30567 199.319 6.54586V24.413L170.415 1.37395C170.188 1.19372 169.915 1.08126 169.627 1.04948C169.34 1.0177 169.049 1.06791 168.789 1.19432C168.528 1.32073 168.309 1.51822 168.155 1.76406C168.002 2.00989 167.921 2.2941 167.922 2.58397V39.4758C167.902 40.716 168.306 41.9258 169.066 42.905C169.826 43.8843 170.897 44.5745 172.101 44.8614C172.884 45.0338 173.695 45.0281 174.475 44.8447C175.254 44.6613 175.983 44.3049 176.607 43.8017C177.231 43.2986 177.734 42.6616 178.08 41.9377C178.425 41.2138 178.604 40.4214 178.603 39.6191V21.5973L207.508 44.6368C207.735 44.8169 208.007 44.9293 208.295 44.9611C208.582 44.9928 208.873 44.9426 209.133 44.8162C209.394 44.6899 209.613 44.4925 209.766 44.2468C209.92 44.001 210.001 43.717 210 43.4272V6.40079C210.001 5.59865 209.822 4.80655 209.476 4.08289C209.131 3.35923 208.628 2.72245 208.004 2.21952C207.38 1.71659 206.651 1.36033 205.872 1.177C205.092 0.99367 204.281 0.987949 203.499 1.16026ZM128.239 10.7405C140.465 10.7405 149.6 17.2119 149.6 23.0006C149.6 28.7892 140.465 35.2607 128.239 35.2607C116.013 35.2607 106.878 28.7892 106.878 23.0006C106.878 17.2119 116.013 10.7405 128.239 10.7405ZM128.239 0.00973858C110.542 0.00973858 96.1967 10.3032 96.1967 23.0006C96.1967 35.698 110.542 45.9915 128.239 45.9915C145.935 45.9915 160.28 35.698 160.28 23.0006C160.28 10.3032 145.935 0.00973858 128.239 0.00973858Z" fill="#292B2E"/>
</svg>
