<svg width="195" height="74" viewBox="0 0 195 74" fill="none" xmlns="http://www.w3.org/2000/svg">
<path d="M37.4699 0C17.076 0 0.484375 16.5983 0.484375 37.0003C0.484375 57.4023 17.076 74 37.4699 74C57.8631 74 74.4541 57.4017 74.4541 37.0003C74.4541 16.5983 57.8631 0 37.4699 0Z" fill="#292B2E"/>
<path d="M73.7786 36.9985C73.7786 57.0617 57.5211 73.3245 37.4681 73.3245C17.4137 73.3245 1.15625 57.0617 1.15625 36.9985C1.15625 16.9354 17.4137 0.671875 37.4681 0.671875C57.5211 0.671875 73.7786 16.9354 73.7786 36.9985Z" fill="#3D3E40"/>
<path d="M37.4686 2.41406C18.3783 2.41406 2.90234 17.8968 2.90234 36.9959C2.90234 44.7372 5.44754 51.8837 9.74231 57.6485C21.3095 54.2329 31.3938 48.2833 40.0502 39.7021C48.6807 31.1466 54.7582 21.0375 58.2317 9.47095C53.1343 5.02083 44.8664 2.41406 37.4686 2.41406Z" fill="#292B2E"/>
<path d="M67.5651 25.4789C67.2895 33.7428 63.8095 40.4904 57.6288 44.9896C51.7287 49.2846 44.5465 51.1283 38.2704 52.5376C29.207 54.573 19.2591 56.7416 11.0352 59.2732C17.3752 66.7996 26.8635 71.5801 37.47 71.5801C56.559 71.5801 72.035 56.0947 72.035 36.9977C72.035 30.2372 69.859 23.6458 66.508 18.3203C67.2026 20.6162 67.6476 23.0038 67.5651 25.4789Z" fill="#292B2E"/>
<path d="M154.363 24.5479C150.895 24.5479 147.897 25.6262 145.525 27.7425C142.866 30.115 141.581 33.3854 141.581 37.6687V54.7332H145.117V43.7197C146.205 44.9432 147.565 45.8921 149.128 46.5762C150.829 47.3204 152.596 47.6622 154.499 47.6622C158.103 47.6622 161.129 46.5402 163.677 44.2627C166.228 41.9829 167.484 39.3003 167.484 36.1044C167.484 32.841 166.292 30.0863 163.745 27.8786C161.193 25.6664 158.103 24.5479 154.363 24.5479ZM147.429 30.3261C149.248 28.5423 151.508 27.6065 154.363 27.6065C157.083 27.6065 159.326 28.4238 161.161 30.054C162.998 31.6858 163.881 33.7242 163.881 36.1744C163.881 38.4845 163.099 40.4213 161.501 42.02C159.767 43.7534 157.422 44.6043 154.431 44.6043C151.643 44.6043 149.215 43.7715 147.428 42.02C145.746 40.3712 144.98 38.4178 144.98 36.1744C144.981 33.9297 145.78 31.9426 147.429 30.3261ZM96.778 24.5479C93.3105 24.5479 90.3119 25.6262 87.9399 27.7425C85.2808 30.115 83.9961 33.3854 83.9961 37.6687V54.7332H87.5316V43.7197C88.6196 44.9432 89.9804 45.8921 91.5434 46.5762C93.2438 47.3204 95.0109 47.6622 96.9141 47.6622C100.518 47.6622 103.544 46.5402 106.092 44.2627C108.643 41.9829 109.899 39.3003 109.899 36.1044C109.899 32.841 108.707 30.0863 106.16 27.8786C103.608 25.6664 100.518 24.5479 96.778 24.5479ZM89.8437 30.3261C91.6632 28.5423 93.9236 27.6065 96.778 27.6065C99.4984 27.6065 101.741 28.4238 103.576 30.054C105.413 31.6858 106.296 33.7242 106.296 36.1744C106.296 38.4845 105.514 40.4213 103.916 42.02C102.182 43.7534 99.8372 44.6043 96.846 44.6043C94.0583 44.6043 91.6302 43.7715 89.843 42.02C88.1606 40.3712 87.395 38.4178 87.3955 36.1744C87.3961 33.9297 88.1949 31.9426 89.8437 30.3261ZM135.871 28.968C133.459 26.0035 130.093 24.5479 125.537 24.5479C122.138 24.5479 119.236 25.5281 116.698 27.5384C114.002 29.6749 112.62 32.5028 112.62 36.0377C112.62 38.0089 113.197 39.9599 114.319 41.8159C115.374 43.5627 116.89 45.0381 119.011 46.0985C121.105 47.1455 123.362 47.5941 125.809 47.5941C128.121 47.5941 130.309 47.1463 132.405 46.0985C134.524 45.0389 136.061 43.5747 137.095 41.8159L137.775 40.6599H133.832C133.016 41.8159 131.859 42.7689 130.365 43.5156C128.869 44.2631 127.237 44.6036 125.673 44.6036C123.498 44.6036 121.646 44.0821 120.03 42.9713C118.382 41.8384 117.311 40.3877 116.631 38.4838C120.468 36.9767 123.298 37.1564 127.237 37.5319L132.948 38.0763C134.707 38.2439 136.221 37.8312 137.571 37.3972C138.125 37.2192 138.414 36.9006 138.592 36.58C138.756 36.2837 138.761 35.8415 138.66 35.2879C138.216 32.8477 137.332 30.7636 135.871 28.968ZM134.988 34.6788C132.908 35.1526 130.828 34.704 128.732 34.5434C126.399 34.3647 124.07 33.9908 121.73 34.0658C119.822 34.127 118.058 34.5434 116.359 35.1538C116.63 32.6376 117.829 30.6285 119.895 29.2388C121.569 28.1125 123.498 27.5384 125.537 27.5384C128.732 27.5384 131.217 28.5252 133.016 30.5983C134.004 31.7381 134.673 33.3346 134.988 34.6788ZM184.415 36.7848C183.334 35.8278 181.544 35.066 179.248 34.338C177.463 33.7722 176.167 33.1436 175.439 32.6369C174.602 32.0541 174.285 31.3454 174.285 30.5976C174.285 29.7131 174.596 28.9982 175.373 28.423C176.161 27.8401 177.274 27.5377 178.703 27.5377C180.674 27.5377 182.294 27.9467 183.599 28.7432L184.075 29.034L185.773 26.2483L185.294 25.9755C183.651 25.0404 181.558 24.5479 179.18 24.5479C176.595 24.5479 174.496 25.1697 172.924 26.383C172.117 27.0063 171.578 27.6137 171.157 28.4236C170.764 29.1782 170.544 29.9186 170.544 30.8018C170.544 32.298 171.224 33.5227 172.449 34.6088C173.603 35.6307 175.309 36.4276 177.547 37.1243C179.456 37.7184 180.786 38.2944 181.558 38.9608C182.287 39.5891 182.648 40.3877 182.648 41.3396C182.648 42.3596 182.136 43.2229 181.15 43.8558C180.227 44.4486 178.837 44.7397 177.139 44.7397C175.302 44.7397 173.47 44.2588 171.564 43.3782L171.033 43.1327L169.524 45.8951L170.069 46.1666C172.165 47.2103 174.489 47.6622 177.004 47.6622C179.723 47.6622 181.945 47.0874 183.734 45.8951C184.599 45.3191 185.26 44.6222 185.706 43.8565C186.211 42.9894 186.386 42.0194 186.386 41.0334C186.386 39.3677 185.712 37.9331 184.415 36.7848ZM194.274 47.1199V25.1596H190.601L190.67 47.1199H194.274ZM194.136 22.0997C194.562 21.6412 194.816 21.0818 194.816 20.402C194.816 19.6536 194.563 19.0244 194.136 18.5656C193.677 18.0711 193.049 17.8164 192.368 17.8164C191.689 17.8164 191.129 18.071 190.6 18.5656C190.109 19.0242 189.92 19.6536 189.92 20.402C189.92 21.0818 190.109 21.6416 190.6 22.0997C191.129 22.5941 191.689 22.7795 192.368 22.7795C193.049 22.7795 193.677 22.5939 194.136 22.0997Z" fill="#292B2E"/>
</svg>
