<svg width="329" height="58" viewBox="0 0 329 58" fill="none" xmlns="http://www.w3.org/2000/svg">
<path d="M328.926 0H0.347656V58.001H328.926V0Z" fill="#292B2E"/>
<path d="M327.52 1.41016H59.3359V56.7363H327.52V1.41016Z" fill="#1D2023"/>
<path d="M81.6569 13.9649C82.7831 13.6834 83.7686 13.5426 84.6133 13.5426C86.0211 13.5426 87.1473 13.8242 88.2735 14.5281C89.2589 15.0912 90.1036 16.0766 90.6668 17.3436C91.2299 18.6107 91.5114 20.0185 91.5114 21.4263C91.5114 23.538 90.9483 25.368 89.6813 26.635C88.4143 28.0428 87.0065 28.606 85.3172 28.606C84.8948 28.606 84.1909 28.606 83.6278 28.4652C83.0647 28.4652 82.3608 28.3244 81.6569 28.1837V13.9649V13.9649ZM91.793 11.2902C89.9628 10.5863 87.288 10.3047 84.0501 10.3047H70.3945V12.2756H72.2246C73.4917 12.2756 74.3364 12.5571 74.8995 13.261C75.181 13.5426 75.4626 14.3873 75.4626 17.2029V40.5722C75.4626 43.1062 75.181 43.9509 75.0402 44.2324C74.4771 45.0771 73.4917 45.4995 72.2246 45.4995H70.3945V47.4704H86.8657V45.4995H85.0356C83.7686 45.4995 82.9239 45.2179 82.3608 44.514C82.0792 44.2324 81.7977 43.3878 81.7977 40.5722V30.7177C82.7831 30.8584 83.6278 30.9992 84.4724 31.14C85.4579 31.2808 86.4434 31.2808 87.288 31.2808C90.9483 31.2808 93.7639 30.2953 95.7348 28.3244C97.7057 26.3535 98.8319 23.8195 98.8319 20.7224C98.8319 18.4699 98.128 16.499 96.861 14.8096C95.3124 13.2611 93.7639 11.9941 91.793 11.2902Z" fill="#292B2E"/>
<path d="M132.122 10.2734V12.2444H133.952C135.219 12.2444 136.064 12.526 136.627 13.2299C136.909 13.5114 137.19 14.3561 137.19 17.1716V31.8126C137.19 35.6137 136.909 38.2885 136.205 39.8371C135.642 41.2448 134.375 42.5119 132.544 43.4974C130.714 44.4828 128.743 45.0459 126.491 45.0459C124.802 45.0459 123.253 44.7643 121.986 44.0604C120.86 43.4973 119.874 42.6526 119.311 41.6672C118.607 40.6817 118.185 39.4147 118.044 37.7254C117.763 35.8952 117.622 34.3467 117.622 32.9389V17.1716C117.622 14.7784 117.903 13.7929 118.185 13.5113C118.748 12.6667 119.593 12.3851 120.86 12.3851H122.69V10.4143H106.219V12.3851H108.049C109.175 12.3851 110.02 12.6667 110.583 13.2299C111.005 13.6522 111.287 14.6376 111.287 17.3124V31.3903C111.287 35.8952 111.568 38.8516 112.131 40.4002C112.976 42.7934 114.525 44.7643 116.636 46.1721C118.748 47.5799 121.845 48.2838 125.928 48.2838C129.588 48.2838 132.685 47.5799 134.797 46.0314C137.049 44.6236 138.457 42.7935 139.161 40.6818C139.865 38.5701 140.287 35.7545 140.287 32.0942V17.4532C140.287 14.9192 140.569 14.0745 140.71 13.9337C141.414 12.8075 142.258 12.3851 143.525 12.3851H145.355V10.4143H132.122V10.2734Z" fill="#292B2E"/>
<path d="M166.188 14.0777C167.737 13.7962 168.863 13.6554 169.849 13.6554C171.96 13.6554 173.79 14.3593 175.057 15.6263C176.324 16.8933 177.028 18.5827 177.028 20.6944C177.028 22.8061 176.184 24.6362 174.635 26.044C172.946 27.4518 170.552 28.1557 167.314 28.1557C167.174 28.1557 166.47 28.1557 166.329 28.1557V14.0777H166.188ZM186.742 44.3453C185.616 43.6414 184.208 42.0928 182.519 39.6996C182.519 39.6996 177.028 32.2382 175.48 29.9858C178.295 29.2819 180.407 28.1557 181.674 26.6071C183.223 24.9178 183.926 22.806 183.926 20.5536C183.926 18.3011 183.223 16.471 181.956 14.9224C180.688 13.3738 178.999 12.2476 177.028 11.6845C175.198 11.1214 172.242 10.8398 168.441 10.8398H154.785V12.8107H156.615C157.882 12.8107 158.727 13.0923 159.29 13.7962C159.572 14.0777 159.853 14.9224 159.853 17.738V41.1074C159.853 43.6414 159.572 44.486 159.431 44.7676C158.868 45.6123 158.023 46.0346 156.615 46.0346H154.785V48.0055H171.397V45.753H169.426C168.3 45.753 167.455 45.4715 166.751 44.7676C166.47 44.486 166.188 43.6414 166.188 40.8258V30.8305H166.47C166.751 30.8305 166.892 30.8305 167.174 30.8305C167.737 30.8305 168.3 30.8305 169.145 30.8305L181.392 47.724H191.81V45.753H191.388C189.558 45.4715 188.009 45.0492 186.742 44.3453Z" fill="#292B2E"/>
<path d="M201.098 10.5547V12.5256H202.928C203.632 12.5256 204.477 12.6664 205.04 13.0887C205.462 13.3703 205.744 13.6519 205.884 13.9334C206.025 14.3558 206.166 15.2004 206.166 17.3121V40.6815C206.166 43.3563 205.884 44.2009 205.603 44.4824C205.04 45.1863 204.054 45.6087 202.787 45.6087H200.957V47.5796H217.428V45.7495H215.598C214.894 45.7495 214.19 45.6087 213.486 45.1863C213.064 44.9048 212.782 44.6232 212.642 44.3417C212.501 43.9193 212.36 43.0746 212.36 40.9629V17.5936C212.36 14.9188 212.642 14.0741 212.923 13.7926C213.486 13.0887 214.472 12.6664 215.739 12.6664H217.569V10.5547H201.098Z" fill="#292B2E"/>
<path d="M270.365 10.5547H256.709V12.5256H258.539C259.806 12.5256 260.792 12.8071 261.355 13.511C261.636 13.7926 261.918 14.6373 261.918 17.3121V36.5988L240.379 10.5547H229.82V12.5256H230.383C231.369 12.5256 232.073 12.6663 232.636 12.8071C233.621 13.0887 234.325 13.511 234.888 13.7926C235.311 14.0741 236.155 14.9189 237 16.0451V40.9629C237 43.497 236.718 44.3417 236.578 44.6233C236.015 45.4679 235.17 45.7495 233.762 45.7495H231.932V47.7204H245.588V45.7495H243.757C242.49 45.7495 241.646 45.4679 241.083 44.764C240.801 44.4824 240.519 43.6377 240.519 40.9629V20.1277L263.748 48.2835H265.437V17.3121C265.437 14.778 265.719 13.9334 266.001 13.6518C266.564 12.8072 267.408 12.5256 268.816 12.5256H270.646V10.5547H270.365Z" fill="#292B2E"/>
<path d="M295.286 19.8547L300.495 32.5248H289.795L295.286 19.8547ZM315.98 45.758C314.572 45.6173 313.587 45.3357 312.883 44.6318C312.179 43.9279 311.194 42.5201 310.208 40.1269L297.82 9.85938H296.13L283.038 39.8453C281.912 42.3793 280.926 44.0687 280.082 44.9134C279.941 45.0542 279.237 45.4765 277.407 45.8988L276.984 45.758V47.729H289.373V45.758H288.951C286.98 45.6173 286.135 45.3357 285.853 45.0542C285.431 44.7726 285.29 44.3502 285.29 44.0687C285.29 43.6463 285.431 42.8017 286.135 41.1124C286.135 41.1124 287.965 37.0298 288.528 35.7628H301.902C302.325 36.889 303.873 40.69 303.873 40.69C304.577 42.2386 304.859 43.5056 304.859 44.2095C304.859 44.6319 304.718 44.9134 304.296 45.3357C304.014 45.6173 303.31 45.8988 301.621 45.8988H301.198V47.8697H316.543V45.758H315.98Z" fill="#292B2E"/>
<path d="M57.2286 1.41016H1.90234V56.7363H57.2286V1.41016Z" fill="#25272A"/>
<path d="M55.3921 3.38281H4.00781V54.7672H55.3921V3.38281Z" fill="#292B2E"/>
<path d="M21.7477 37.0195H5.98047V52.7868H21.7477V37.0195Z" fill="#25272A"/>
<path d="M53.2828 37.0195H37.5156V52.7868H53.2828V37.0195Z" fill="#25272A"/>
<path d="M37.5095 21.1133H21.7422V36.8806H37.5095V21.1133Z" fill="#25272A"/>
<path d="M21.7477 5.35547H5.98047V21.1227H21.7477V5.35547Z" fill="#25272A"/>
<path d="M53.2828 5.35547H37.5156V21.1227H53.2828V5.35547Z" fill="#25272A"/>
</svg>
