<svg width="273" height="74" viewBox="0 0 273 74" fill="none" xmlns="http://www.w3.org/2000/svg">
<path d="M192.336 59.2827V14.7891H225.924L215.887 22.2158H201.904V33.0549H222.378V40.4816H201.904V51.856H225.924V59.2827H192.336Z" fill="#292B2E"/>
<path d="M166.917 32.1182H155.275V22.2158H173.876L183.912 14.7891H145.641V59.2827H165.646C176.887 59.2827 183.31 54.1977 183.31 45.299C183.377 36.8017 177.556 32.1182 166.917 32.1182ZM165.245 51.856H155.208V39.5449H165.245C171.333 39.5449 174.143 41.6191 174.143 45.7005C174.21 49.9156 171.199 51.856 165.245 51.856Z" fill="#292B2E"/>
<path d="M253.153 14.7891H234.82V59.2827H244.388V46.7041H253.086C264.795 46.7041 272.021 40.5486 272.021 30.7131C272.088 20.8777 264.862 14.7891 253.153 14.7891ZM252.952 39.2773H244.455V22.2158H252.952C259.108 22.2158 262.453 25.2267 262.453 30.78C262.453 36.2665 259.108 39.2773 252.952 39.2773Z" fill="#292B2E"/>
<path d="M129.169 49.6452C126.693 50.9834 123.816 51.7194 120.872 51.7194C112.241 51.7194 105.952 45.5638 105.952 36.9997C105.952 28.5024 112.241 22.2799 120.872 22.2799C124.151 22.2799 127.095 23.2167 129.57 25.0232L136.462 19.9382L135.994 19.5367C131.979 15.9906 126.627 14.1172 120.471 14.1172C113.78 14.1172 107.759 16.3921 103.476 20.4734C99.1274 24.5548 96.7188 30.3758 96.7188 36.732C96.7188 43.1552 99.1274 48.9761 103.41 53.2582C107.759 57.4734 113.78 59.8152 120.404 59.8152C127.296 59.8152 133.384 57.4065 137.466 52.9906C134.321 50.6488 131.243 48.4409 131.243 48.4409L129.169 49.6452Z" fill="#292B2E"/>
<path d="M0.710938 37C0.710938 57.4069 17.2372 74 37.644 74C58.0509 74 74.5771 57.4738 74.5771 37C74.5771 34.7251 74.3764 32.5172 73.9749 30.3761L66.0129 36.264C66.0129 36.5317 66.0129 36.7993 66.0129 37C66.0129 52.6564 53.3004 65.4358 37.5771 65.4358C21.9207 65.4358 9.14132 52.6564 9.14132 37C9.14132 21.3436 21.8538 8.56421 37.5771 8.56421C43.5319 8.56421 49.0183 10.3707 53.5681 13.5154L60.7272 8.22967C54.371 3.07777 46.342 0 37.5102 0C17.2372 0.0669078 0.710938 16.5931 0.710938 37Z" fill="#292B2E"/>
<path d="M66.8831 14.4531C68.6227 16.728 70.0947 19.2036 71.299 21.813L37.6444 46.6358L23.5938 37.8039V27.1656L37.6444 35.9974L66.8831 14.4531Z" fill="#292B2E"/>
</svg>
