<svg width="196" height="74" viewBox="0 0 196 74" fill="none" xmlns="http://www.w3.org/2000/svg">
<path d="M0 26.0586L28.7731 22.0092V33.5716L0 36.7421L0 26.0586ZM9.18079 37.3916L19.7156 36.3147V73.9999H9.18079L9.18079 37.3916ZM32.6583 21.4617L43.7581 19.8993V73.9997H32.6583V21.4617ZM45.8263 19.6076L61.8547 17.3519V29.9275L45.8263 31.6928V19.6076ZM45.8263 40.6882L56.3487 39.7823V52.4203L45.8263 52.9958V40.6882ZM45.8262 61.8645L61.8545 61.3804V73.9997H45.8262V61.8645ZM103.305 11.4982L117.856 9.44956V74H103.305V11.4982ZM120.575 9.06698L141.78 6.08203V21.1072L120.575 23.4432V9.06698ZM120.575 34.2567L134.474 33.0634V48.1391L120.575 48.8995V34.2567ZM120.574 59.6019L141.78 58.9613V73.9997H120.574V59.6019ZM66.0951 16.7545L78.7388 14.9746V73.9998H66.0951V16.7545ZM81.0987 60.7987L99.4531 60.2439V73.9997H81.0987V60.7987ZM189.321 5.37458C193.525 9.35544 195.645 14.9936 195.138 20.8444C194.179 31.9032 188.821 40.7639 173.903 55.3625L149.489 56.1652C149.489 56.1652 166.495 40.6933 172.892 33.1339C177.036 28.2354 178.792 22.9477 177.09 19.4232C176.011 17.1897 173.589 16.0782 170.605 16.2444V0.298776C177.98 -0.762924 184.725 1.02251 189.321 5.37458ZM196 73.9997H146.477V58.5475L196 57.3136V73.9997ZM167.758 0.656763L167.767 16.8967C164.747 18.171 161.763 20.489 162.462 30.2618L147.122 31.6248C146.307 14.3266 153.371 3.72413 167.758 0.656763Z" fill="#292B2E"/>
</svg>
