<svg width="154" height="50" viewBox="0 0 154 50" fill="none" xmlns="http://www.w3.org/2000/svg">
<path fill-rule="evenodd" clip-rule="evenodd" d="M97.8941 0.630557C88.7944 1.38187 81.8334 6.2112 80.1008 12.9749C78.4022 19.6061 81.4061 24.5566 89.6699 28.7448C94.0552 30.9672 95.8794 32.2717 96.4209 33.572C96.5498 33.8816 96.6552 34.5079 96.6552 34.9638C96.6552 36.9615 95.1353 38.426 92.1951 39.2615C90.8255 39.6508 86.2004 39.6487 84.0838 39.2578C82.3795 38.9431 79.5923 38.0399 77.8269 37.2301C77.1405 36.9152 76.5507 36.6858 76.5164 36.7203C76.482 36.7547 75.9241 39.0884 75.2766 41.906C74.3158 46.0869 74.138 47.0529 74.3089 47.1598C75.2246 47.7319 79.7546 48.8209 82.9571 49.2387C85.6471 49.5897 90.6108 49.5865 92.8838 49.2325C98.2023 48.4039 102.213 46.6494 105.184 43.8511C109.868 39.441 111.127 31.9783 108.007 27.1239C106.355 24.5542 104.299 22.9623 99.0055 20.1552C95.7432 18.4251 94.5562 17.672 93.696 16.7861C92.8877 15.9539 92.6542 15.4576 92.6542 14.5726C92.6542 12.1449 95.6756 10.4408 99.9795 10.4408C102.814 10.4408 105.942 11.0265 108.592 12.0535C109.367 12.3538 110.049 12.5458 110.109 12.48C110.32 12.247 112.432 2.73553 112.3 2.61113C112.045 2.36954 109.174 1.53315 107.311 1.15749C104.115 0.513068 101.254 0.353038 97.8941 0.630557ZM0.518092 2.0094C0.425042 2.35572 0.370865 2.66042 0.397341 2.68638C0.423971 2.71218 1.5796 3.02441 2.96556 3.3801C7.63812 4.57941 12.2005 6.34374 13.6896 7.52722C14.0519 7.81519 14.4655 8.37376 14.7447 8.95199C15.0811 9.64893 16.4871 15.0992 20.0023 29.3311L24.8007 48.759L31.382 48.799L37.9633 48.839L48.2368 25.378C53.8873 12.4745 58.5559 1.79546 58.6114 1.64664C58.7072 1.39078 58.3623 1.37834 52.177 1.41627L45.6415 1.45636L39.0438 17.3903C35.415 26.154 32.4045 33.3242 32.3538 33.3242C32.303 33.3242 31.1699 27.1216 29.8356 19.5404C28.5014 11.9592 27.3153 5.48015 27.1999 5.14228C26.8639 4.15737 25.9679 2.98003 25.1129 2.39934C23.5788 1.3573 23.8717 1.37957 11.6725 1.37957H0.687052L0.518092 2.0094ZM63.9825 1.72512C63.8402 2.29705 53.3135 47.9572 53.2187 48.4135L53.1308 48.8358H59.3453H65.5597L65.6419 48.4903C66.2451 45.9548 76.4316 1.59642 76.4316 1.5052C76.4316 1.43608 73.6499 1.37957 70.2499 1.37957H64.0683L63.9825 1.72512ZM131.822 1.58951C130.37 1.98268 129.003 3.09506 128.319 4.44072C128.084 4.90147 109.358 47.5783 108.922 48.6455C108.859 48.7999 110.171 48.8311 115.396 48.7991L121.949 48.759L123.256 45.2674L124.564 41.7757L132.538 41.7734L140.512 41.7711L141.156 45.0347C141.509 46.8298 141.834 48.4192 141.877 48.567C141.949 48.8169 142.36 48.8358 147.7 48.8358H153.446L153.362 48.4903C153.316 48.3001 151.237 37.778 148.743 25.1077C146.248 12.4373 144.17 1.91525 144.125 1.72512L144.043 1.37957L138.283 1.38986C134.228 1.39723 132.315 1.45636 131.822 1.58951ZM138.512 31.8953C138.484 31.9233 136.19 31.928 133.415 31.9058L128.37 31.8652L131.594 23.4183C133.368 18.7725 134.881 14.8332 134.957 14.6642C135.056 14.4411 135.568 16.7477 136.828 23.1007C137.782 27.9098 138.54 31.8672 138.512 31.8953Z" fill="#292B2E"/>
</svg>
