<svg width="187" height="66" viewBox="0 0 187 66" fill="none" xmlns="http://www.w3.org/2000/svg">
<path d="M159.887 57.0732H167.788C170.769 57.0732 172.608 56.3254 173.9 54.6804C174.546 53.8828 175.44 52.3874 175.44 49.6457C175.44 46.904 174.546 45.0097 172.707 43.614C171.614 42.8164 170.173 42.3179 167.688 42.3179H159.887V57.0732ZM149.402 65.9463V13.2061H183.639L180.658 22.0792H159.936V33.7439H168.384C175.192 33.7439 178.769 35.3889 181.204 37.4825C183.092 39.1276 186.372 42.7665 186.372 49.9946C186.372 57.123 182.993 61.0611 180.21 63.055C176.931 65.3481 173.502 65.9961 166.496 65.9961H149.402V65.9463ZM119.14 65.9463V22.0294H103.934V13.1562H146.122L143.141 22.0294H129.674V65.9463H119.14ZM77.0016 34.2424H82.9148C84.7534 34.2424 85.6479 34.2424 86.5423 33.9931C88.9772 33.2454 90.5673 31.052 90.5673 28.0611C90.5673 24.5218 88.9275 22.9266 86.5423 22.2288C85.5485 21.9795 84.5547 21.8798 82.5173 21.8798H76.9519V34.2424H77.0016ZM77.101 43.3647V57.2227H84.3559C86.5423 57.2227 88.53 57.0233 90.0207 55.6774C91.4617 54.3315 92.1077 52.5868 92.1077 50.2937C92.1077 48.549 91.6605 46.904 90.7661 45.7076C89.2256 43.8134 87.2877 43.3149 84.0577 43.3149H77.101V43.3647ZM93.9463 37.8315V38.0309C95.934 38.7786 97.8719 40.0248 98.8657 40.8723C101.947 43.4146 103.338 46.8043 103.338 51.191C103.338 58.4191 99.5117 63.6034 93.2506 65.2484C91.3624 65.7967 89.325 65.9961 85.5982 65.9961H66.5664V13.2061H83.4117C86.8901 13.2061 89.2256 13.4055 91.3127 13.9538C97.4247 15.5988 101.4 19.7862 101.4 26.4659C101.4 30.0052 100.108 33.046 98.021 35.0399C97.1265 35.8874 95.8346 36.984 93.9463 37.8315Z" fill="#292B2E"/>
<path d="M57.7687 0H13.5932L10.3633 8.77341H54.5885L57.7687 0Z" fill="#292B2E"/>
<path d="M53.0031 13.2109H8.7779L5.59766 21.9844H49.8229L53.0031 13.2109Z" fill="#292B2E"/>
<path d="M48.2297 26.3711H4.00446L0.824219 35.1445H45.0494L48.2297 26.3711Z" fill="#292B2E"/>
</svg>
