<svg width="212" height="62" viewBox="0 0 212 62" fill="none" xmlns="http://www.w3.org/2000/svg">
<g clip-path="url(#clip0_3935_1645)">
<path d="M201.287 53.4303C205.416 53.4303 208.341 52.6883 210.52 51.0902V43.8416C208.283 45.3826 205.588 46.3529 201.803 46.3529C195.437 46.3529 192.799 41.4444 192.799 33.6821C192.799 25.5203 196.011 21.3538 201.86 21.3538C205.301 21.3538 208.685 22.5524 210.463 23.6939V16.16C208.57 15.1326 205.301 14.3906 200.828 14.3906C189.416 14.3906 183.509 22.5524 183.509 33.9675C183.566 46.467 189.358 53.4303 201.287 53.4303ZM145.486 50.1199V42.8713C142.733 44.7548 138.031 46.41 133.729 46.41C127.192 46.41 124.726 43.3279 124.324 37.0496H145.887V32.3694C145.887 19.2991 140.095 14.3906 131.206 14.3906C120.31 14.3906 115.148 22.6666 115.148 34.0246C115.148 47.0949 121.629 53.4303 132.984 53.4303C138.661 53.4303 142.848 51.8892 145.486 50.1199ZM63.6486 15.0755V29.9152H51.7199V15.0755H42.7734V52.6883H51.7199V36.9925H63.6486V52.6883H72.5951V15.0755H63.6486ZM112.912 45.6109H108.954V15.0755H82.9179V18.2718C82.9179 27.4609 82.3444 39.3326 79.1902 45.6109H76.3228V61.2496H84.5811V52.6883H104.596V61.2496H112.854V45.6109H112.912ZM173.989 52.6883H184.139L169.802 32.4265L182.419 15.0755H173.415L160.798 32.4265V15.0755H151.852V52.6883H160.798V34.1958L173.989 52.6883ZM130.977 21.3538C135.393 21.3538 136.769 25.0067 136.769 29.7439V30.4859H124.324C124.554 24.493 126.733 21.3538 130.977 21.3538ZM100.008 45.6109H87.3912C89.8572 39.9604 90.5454 29.6869 90.5454 23.1802V22.0387H100.008V45.6109Z" fill="#292B2E"/>
<path d="M35.3174 52.6887H26.1989V7.77028H22.1271C14.6717 7.77028 10.7719 11.4802 10.7719 17.0165C10.7719 23.2948 13.4673 26.2057 19.0302 29.9156L23.6182 32.9976L10.4278 52.6887H0.621094L12.4924 35.1094C5.66783 30.258 1.82543 25.5208 1.82543 17.5302C1.82543 7.54198 8.82204 0.75 22.0697 0.75H35.2601L35.3174 52.6887Z" fill="#292B2E"/>
</g>
<defs>
<clipPath id="clip0_3935_1645">
<rect width="210.472" height="60.5" fill="white" transform="translate(0.621094 0.75)"/>
</clipPath>
</defs>
</svg>
