<svg width="242" height="32" viewBox="0 0 242 32" fill="none" xmlns="http://www.w3.org/2000/svg">
<path d="M234.69 0.00976562V19.4098L218.79 0.00976562H212.67V31.9898H219.98V12.5798L235.92 31.9898H242V0.00976562H234.69Z" fill="#151720"/>
<path d="M7.36 18.6498H22.2V12.8898H7.36V5.94977H24.17V0.00976562H0V31.9898H24.76V26.0498H7.36V18.6498Z" fill="#151720"/>
<path d="M62.36 0.00976562L50.58 19.8698L38.6 0.00976562H32.48V31.9898H39.42V13.2098L48.79 28.6098H52.12L61.54 12.7998L61.58 31.9898H68.52L68.43 0.00976562H62.36Z" fill="#151720"/>
<path d="M85.34 0.00976562H77.94V31.9898H85.34V0.00976562Z" fill="#151720"/>
<path d="M124.5 0.00976562H116.28L102.11 14.9298V0.00976562H94.7598V31.9898H102.11V23.9198L106.4 19.4398L116.64 31.9898H125.28L111.26 14.2598L124.5 0.00976562Z" fill="#151720"/>
<path d="M160.28 0.00976562L148.5 19.8698L136.53 0.00976562H130.4V31.9898H137.35V13.2098L146.71 28.6098H150.05L159.46 12.7998L159.51 31.9898H166.45L166.36 0.00976562H160.28Z" fill="#151720"/>
<path d="M185.91 0.00976562L171.66 31.9898H179.24L182.09 25.1398H196.91L199.75 31.9898H207.52L193.23 0.00976562H185.91ZM184.43 19.5198L189.52 7.27977L194.59 19.5198H184.43Z" fill="#151720"/>
</svg>
